<svg width="36" height="36" viewBox="0 0 36 36" fill="none" xmlns="http://www.w3.org/2000/svg">
<g filter="url(#filter0_d_233_1271)">
<path d="M15.1348 26.7733V23.7156C15.1348 22.9351 15.7722 22.3023 16.5584 22.3023H19.4326C19.8102 22.3023 20.1723 22.4512 20.4393 22.7163C20.7063 22.9813 20.8563 23.3408 20.8563 23.7156V26.7733C20.8539 27.0978 20.9821 27.4099 21.2124 27.6402C21.4427 27.8705 21.7561 28 22.0829 28H24.0438C24.9596 28.0023 25.8388 27.6428 26.4872 27.0008C27.1356 26.3588 27.5 25.487 27.5 24.5778V15.8669C27.5 15.1325 27.1721 14.4358 26.6046 13.9647L19.934 8.67587C18.7737 7.74856 17.1111 7.7785 15.9854 8.74698L9.46701 13.9647C8.87274 14.422 8.51755 15.1206 8.5 15.8669V24.5689C8.5 26.4639 10.0474 28 11.9562 28H13.8723C14.5512 28 15.103 27.4562 15.1079 26.7822L15.1348 26.7733Z" fill="white"/>
</g>
<defs>
<filter id="filter0_d_233_1271" x="-2" y="-2" width="40" height="40" filterUnits="userSpaceOnUse" color-interpolation-filters="sRGB">
<feFlood flood-opacity="0" result="BackgroundImageFix"/>
<feColorMatrix in="SourceAlpha" type="matrix" values="0 0 0 0 0 0 0 0 0 0 0 0 0 0 0 0 0 0 127 0" result="hardAlpha"/>
<feOffset/>
<feGaussianBlur stdDeviation="4"/>
<feComposite in2="hardAlpha" operator="out"/>
<feColorMatrix type="matrix" values="0 0 0 0 1 0 0 0 0 1 0 0 0 0 1 0 0 0 0.28 0"/>
<feBlend mode="normal" in2="BackgroundImageFix" result="effect1_dropShadow_233_1271"/>
<feBlend mode="normal" in="SourceGraphic" in2="effect1_dropShadow_233_1271" result="shape"/>
</filter>
</defs>
</svg>
